<?xml version="1.0" encoding="UTF-8"?>
<svg width="21px" height="20px" viewBox="0 0 21 20" version="1.1" xmlns="http://www.w3.org/2000/svg" xmlns:xlink="http://www.w3.org/1999/xlink">
    <!-- Generator: sketchtool 49.1 (51147) - http://www.bohemiancoding.com/sketch -->
    <title>A9F21B5E-2819-4D80-99D2-42055A4FE9E0@1x</title>
    <desc>Created with sketchtool.</desc>
    <defs></defs>
    <g id="Page-1" stroke="none" stroke-width="1" fill="none" fill-rule="evenodd">
        <g id="Artboard" transform="translate(-43.000000, -698.000000)" fill="#8EA0BB" fill-rule="nonzero">
            <g id="Tools-Menu" transform="translate(40.000000, 215.000000)">
                <g id="icon_eraser" transform="translate(3.000000, 483.000000)">
                    <path d="M20.4112624,18.0739181 L10.8022004,18.0739181 L20.638314,8.43274854 C21.0657335,8.01373737 21.0657769,7.33201489 20.6383574,6.91300372 L13.9069463,0.314215843 C13.4794401,-0.104752791 12.7839669,-0.104752791 12.3564607,0.314215843 L1.59656405,10.8613716 C0.975328512,11.4703243 0.633210744,12.2799362 0.633210744,13.1410952 C0.633210744,14.0022116 0.975328512,14.811866 1.59656405,15.4208187 L4.83772314,18.5978097 C5.20005992,18.9529825 5.68184504,19.1486231 6.19430579,19.1486231 L20.411219,19.1486231 C20.7139835,19.1486231 20.9593884,18.9080276 20.9593884,18.6112919 C20.9594318,18.3145561 20.7140269,18.0739181 20.4112624,18.0739181 Z M6.19434917,18.0739181 C5.97471694,18.0739181 5.76827479,17.9900478 5.61290083,17.8378309 L2.37182851,14.66084 C1.51690289,13.8228177 1.51690289,12.4592451 2.37182851,11.6212653 L4.13153306,9.896353 L9.91672934,15.5672089 C10.0237686,15.6720893 10.1640434,15.724572 10.3043182,15.724572 C10.444593,15.724572 10.5849112,15.6720893 10.691907,15.5672089 C10.9059855,15.3573631 10.9060289,15.0171611 10.6919504,14.8072727 L4.90679752,9.13645933 L13.1317252,1.07406699 L19.863093,7.6728974 L9.25171488,18.0739181 L6.19434917,18.0739181 Z" id="Shape"></path>
                </g>
            </g>
        </g>
    </g>
</svg>