<?xml version="1.0" encoding="UTF-8"?>
<svg width="20px" height="20px" viewBox="0 0 20 20" version="1.1" xmlns="http://www.w3.org/2000/svg" xmlns:xlink="http://www.w3.org/1999/xlink">
    <!-- Generator: sketchtool 49.1 (51147) - http://www.bohemiancoding.com/sketch -->
    <title>C6EED5D0-A096-4963-AD4E-25CCACD07072@1x</title>
    <desc>Created with sketchtool.</desc>
    <defs></defs>
    <g id="Page-1" stroke="none" stroke-width="1" fill="none" fill-rule="evenodd">
        <g id="Artboard" transform="translate(-43.000000, -738.000000)" fill="#8EA0BB" fill-rule="nonzero">
            <g id="Tools-Menu" transform="translate(40.000000, 215.000000)">
                <g id="icon_pencil" transform="translate(3.000000, 523.000000)">
                    <path d="M19.372093,1.77906977 L18.1860465,0.593023256 C17.3952972,-0.197674419 16.2093023,-0.197674419 15.418553,0.593023256 L0.988372093,15.0233075 L0,19.965168 L4.94186047,18.9767959 L19.372093,4.54651163 C20.1627907,3.75581395 20.1627907,2.56976744 19.372093,1.77906977 Z M1.28485788,18.6802584 L1.87788114,15.6162791 L4.34878553,18.0871835 L1.28485788,18.6802584 Z M5.13953488,17.3954005 L2.56976744,14.8255814 L13.6395349,3.75581395 L16.2093023,6.3255814 L5.13953488,17.3954005 Z M18.6802584,3.854677 L17,5.53488372 L14.4301809,2.96511628 L16.1104393,1.28490956 C16.5057881,0.889560724 17.0988114,0.889560724 17.4941602,1.28490956 L18.6802067,2.47095607 C19.0755556,2.86630491 19.0755556,3.45932817 18.6802584,3.854677 Z" id="Shape"></path>
                </g>
            </g>
        </g>
    </g>
</svg>