<?xml version="1.0" encoding="UTF-8"?>
<svg width="23px" height="20px" viewBox="0 0 23 20" version="1.1" xmlns="http://www.w3.org/2000/svg" xmlns:xlink="http://www.w3.org/1999/xlink">
    <!-- Generator: sketchtool 49.1 (51147) - http://www.bohemiancoding.com/sketch -->
    <title>331B7793-D4C2-43C5-88CF-BCC1C2EC3022</title>
    <desc>Created with sketchtool.</desc>
    <defs></defs>
    <g id="Page-1" stroke="none" stroke-width="1" fill="none" fill-rule="evenodd">
        <g id="Artboard" transform="translate(-41.000000, -859.000000)" fill="#8EA0BB" fill-rule="nonzero">
            <g id="Tools-Menu" transform="translate(40.000000, 215.000000)">
                <g id="icon_forward" transform="translate(12.500000, 654.000000) scale(-1, 1) translate(-12.500000, -654.000000) translate(1.000000, 644.000000)">
                    <g id="Shape_1">
                        <path d="M13.0255102,0.833333333 C7.97073214,0.833333333 3.87244898,4.93770833 3.87244898,10 L0.821428571,10 L4.63520408,14.5833333 L8.44897959,10 L5.39795918,10 C5.39795918,5.78180556 8.81281378,2.36111111 13.0255102,2.36111111 C17.2382066,2.36111111 20.6530612,5.78180556 20.6530612,10 C20.6530612,14.2189583 17.2382066,17.6388889 13.0255102,17.6388889 C12.6044694,17.6388889 12.2627551,17.9811111 12.2627551,18.4027778 C12.2627551,18.8252083 12.6044694,19.1666667 13.0255102,19.1666667 C18.0802883,19.1666667 22.1785714,15.0630556 22.1785714,10 C22.1785714,4.93770833 18.0802883,0.833333333 13.0255102,0.833333333 Z" id="Shape"></path>
                    </g>
                </g>
            </g>
        </g>
    </g>
</svg>