<?xml version="1.0" encoding="UTF-8"?>
<svg width="25px" height="22px" viewBox="0 0 25 22" version="1.1" xmlns="http://www.w3.org/2000/svg" xmlns:xlink="http://www.w3.org/1999/xlink">
    <!-- Generator: sketchtool 49.1 (51147) - http://www.bohemiancoding.com/sketch -->
    <title>383A6408-E8F7-4F9C-B2BA-B551D3431670</title>
    <desc>Created with sketchtool.</desc>
    <defs></defs>
    <g id="Page-1" stroke="none" stroke-width="1" fill="none" fill-rule="evenodd">
        <g id="Artboard" transform="translate(-948.000000, -864.000000)" fill="#8EA0BB" fill-rule="nonzero">
            <g id="Zoom-Menu" transform="translate(746.000000, 850.000000)">
                <g id="Backward" transform="translate(189.000000, 0.000000)">
                    <g id="icon_backwards-large" transform="translate(13.000000, 14.000000)">
                        <g id="Shape_1">
                            <path d="M14.1581633,0.916666667 C8.66383929,0.916666667 4.20918367,5.43147917 4.20918367,11 L0.892857143,11 L5.03826531,16.0416667 L9.18367347,11 L5.86734694,11 C5.86734694,6.35998611 9.57914541,2.59722222 14.1581633,2.59722222 C18.7371811,2.59722222 22.4489796,6.35998611 22.4489796,11 C22.4489796,15.6408542 18.7371811,19.4027778 14.1581633,19.4027778 C13.7005102,19.4027778 13.3290816,19.7792222 13.3290816,20.2430556 C13.3290816,20.7077292 13.7005102,21.0833333 14.1581633,21.0833333 C19.6524872,21.0833333 24.1071429,16.5693611 24.1071429,11 C24.1071429,5.43147917 19.6524872,0.916666667 14.1581633,0.916666667 Z" id="Shape"></path>
                        </g>
                    </g>
                </g>
            </g>
        </g>
    </g>
</svg>