<?xml version="1.0" encoding="UTF-8"?>
<svg width="18px" height="24px" viewBox="0 0 18 24" version="1.1" xmlns="http://www.w3.org/2000/svg" xmlns:xlink="http://www.w3.org/1999/xlink">
    <!-- Generator: sketchtool 49.1 (51147) - http://www.bohemiancoding.com/sketch -->
    <title>7A79AC29-41AA-49C4-85E5-6FC611864475@1x</title>
    <desc>Created with sketchtool.</desc>
    <defs></defs>
    <g id="Page-1" stroke="none" stroke-width="1" fill="none" fill-rule="evenodd">
        <g id="Artboard" transform="translate(-44.000000, -286.000000)" fill="#8EA0BB" fill-rule="nonzero">
            <g id="Tools-Menu" transform="translate(40.000000, 215.000000)">
                <g id="icon_padlock" transform="translate(4.000000, 71.000000)">
                    <path d="M9.00004839,12.9690469 C7.6443871,12.9690469 6.5415,14.0374688 6.5415,15.3507656 C6.5415,16.0020938 6.82093548,16.6318594 7.30882258,17.0800313 L7.30882258,19.2304219 C7.30882258,20.1338438 8.06753226,20.8688437 9.00009677,20.8688437 C9.93266129,20.8688437 10.691371,20.1338437 10.691371,19.2304219 L10.691371,17.0800313 C11.1790161,16.6321406 11.4586452,16.0022344 11.4586452,15.3507656 C11.4585484,14.0374688 10.3556129,12.9690469 9.00004839,12.9690469 Z M9.86995161,16.2449062 C9.63522581,16.4591719 9.5006129,16.7586562 9.5006129,17.066625 L9.5006129,19.2304219 C9.5006129,19.4978437 9.27609677,19.7153437 9.00004839,19.7153437 C8.72404839,19.7153437 8.49948387,19.4978437 8.49948387,19.2304219 L8.49948387,17.066625 C8.49948387,16.7587031 8.36487097,16.4592656 8.13029032,16.2450469 C7.8735,16.0105312 7.7321129,15.6929531 7.7321129,15.3507656 C7.7321129,14.6735625 8.30090323,14.1225469 8.99995161,14.1225469 C9.699,14.1225469 10.2677903,14.6735625 10.2677903,15.3507656 C10.2678871,15.6929531 10.1265,16.0105312 9.86995161,16.2449062 Z" id="Shape"></path>
                    <path d="M16.2086613,9.8379375 L14.4227903,9.8379375 L14.4227903,5.253375 C14.4227903,2.35664063 11.9900806,0 9.00004839,0 C6.00991935,0 3.57725806,2.35664063 3.57725806,5.253375 L3.57725806,9.8379375 L1.79133871,9.8379375 C0.806516129,9.8379375 0.00532258065,10.6141406 0.00532258065,11.5681406 L0.00532258065,22.26975 C0.00532258065,23.2237969 0.806516129,23.9999531 1.79133871,23.9999531 L16.2086613,23.9999531 C17.1934839,23.9999531 17.9946774,23.2237969 17.9946774,22.26975 L17.9946774,11.5681875 C17.9946774,10.6141406 17.1934839,9.8379375 16.2086613,9.8379375 Z M4.76787097,5.253375 C4.76787097,2.99273438 6.6663871,1.1535 9,1.1535 C11.3335645,1.1535 13.2320806,2.99273438 13.2320806,5.253375 L13.2320806,9.8379375 L4.76787097,9.8379375 L4.76787097,5.253375 Z M16.8040161,22.2697969 C16.8040161,22.5877969 16.5369194,22.8465469 16.2086613,22.8465469 L1.79133871,22.8465469 C1.46308065,22.8465469 1.19598387,22.5878437 1.19598387,22.2697969 L1.19598387,11.5681875 C1.19598387,11.2501875 1.46308065,10.9914375 1.79133871,10.9914375 L16.2086613,10.9914375 C16.5369194,10.9914375 16.8040161,11.2501406 16.8040161,11.5681875 L16.8040161,22.2697969 Z" id="Shape"></path>
                </g>
            </g>
        </g>
    </g>
</svg>