<?xml version="1.0" encoding="UTF-8"?>
<svg width="22px" height="22px" viewBox="0 0 22 22" version="1.1" xmlns="http://www.w3.org/2000/svg" xmlns:xlink="http://www.w3.org/1999/xlink">
    <!-- Generator: sketchtool 49.1 (51147) - http://www.bohemiancoding.com/sketch -->
    <title>D6166E41-9578-4C95-B692-632A56CFE56F@1x</title>
    <desc>Created with sketchtool.</desc>
    <defs></defs>
    <g id="Page-1" stroke="none" stroke-width="1" fill="none" fill-rule="evenodd">
        <g id="Artboard" transform="translate(-1076.000000, -864.000000)" fill="#8EA0BB" fill-rule="nonzero">
            <g id="Zoom-Menu" transform="translate(746.000000, 850.000000)">
                <g id="Calendar" transform="translate(316.000000, 0.000000)">
                    <g id="icon_calendar" transform="translate(14.000000, 14.000000)">
                        <path d="M18.9880952,2.95058824 L16.0547619,2.95058824 L16.0547619,0.802352941 C16.0547619,0.388235294 15.7142857,0.0517647059 15.2952381,0.0517647059 C14.8761905,0.0517647059 14.5357143,0.388235294 14.5357143,0.802352941 L14.5357143,2.95058824 L7.46428571,2.95058824 L7.46428571,0.802352941 C7.46428571,0.388235294 7.12380952,0.0517647059 6.7047619,0.0517647059 C6.28571429,0.0517647059 5.9452381,0.388235294 5.9452381,0.802352941 L5.9452381,2.95058824 L3.01190476,2.95058824 C1.44047619,2.95058824 0.157142857,4.21882353 0.157142857,5.77176471 L0.157142857,19.0752941 C0.157142857,20.6282353 1.44047619,21.8964706 3.01190476,21.8964706 L18.9880952,21.8964706 C20.5595238,21.8964706 21.8428571,20.6282353 21.8428571,19.0752941 L21.8428571,5.77176471 C21.8428571,4.21882353 20.5595238,2.95058824 18.9880952,2.95058824 Z M20.3238095,19.0752941 C20.3238095,19.8 19.7214286,20.3952941 18.9880952,20.3952941 L3.01190476,20.3952941 C2.27857143,20.3952941 1.67619048,19.8 1.67619048,19.0752941 L1.67619048,5.77176471 C1.67619048,5.04705882 2.27857143,4.45176471 3.01190476,4.45176471 L5.9452381,4.45176471 L5.9452381,5.48705882 C5.9452381,5.90117647 6.28571429,6.23764706 6.7047619,6.23764706 C7.12380952,6.23764706 7.46428571,5.90117647 7.46428571,5.48705882 L7.46428571,4.45176471 L14.5095238,4.45176471 L14.5095238,5.48705882 C14.5095238,5.90117647 14.85,6.23764706 15.2690476,6.23764706 C15.6880952,6.23764706 16.0285714,5.90117647 16.0285714,5.48705882 L16.0285714,4.45176471 L18.9619048,4.45176471 C19.6952381,4.45176471 20.297619,5.04705882 20.297619,5.77176471 L20.297619,19.0752941 L20.3238095,19.0752941 Z" id="Shape"></path>
                        <path d="M7.01904762,16.6682353 L4.21666667,16.6682353 C3.79761905,16.6682353 3.45714286,17.0047059 3.45714286,17.4188235 C3.45714286,17.8329412 3.79761905,18.1694118 4.21666667,18.1694118 L7.01904762,18.1694118 C7.43809524,18.1694118 7.77857143,17.8329412 7.77857143,17.4188235 C7.77857143,17.0047059 7.43809524,16.6682353 7.01904762,16.6682353 Z" id="Shape"></path>
                        <path d="M7.01904762,13.1741176 L4.21666667,13.1741176 C3.79761905,13.1741176 3.45714286,13.5105882 3.45714286,13.9247059 C3.45714286,14.3388235 3.79761905,14.6752941 4.21666667,14.6752941 L7.01904762,14.6752941 C7.43809524,14.6752941 7.77857143,14.3388235 7.77857143,13.9247059 C7.77857143,13.5105882 7.43809524,13.1741176 7.01904762,13.1741176 Z" id="Shape"></path>
                        <path d="M12.4142857,9.68 L9.58571429,9.68 C9.16666667,9.68 8.82619048,10.0164706 8.82619048,10.4305882 C8.82619048,10.8447059 9.16666667,11.1811765 9.58571429,11.1811765 L12.3880952,11.1811765 C12.8071429,11.1811765 13.147619,10.8447059 13.147619,10.4305882 C13.147619,10.0164706 12.8333333,9.68 12.4142857,9.68 Z" id="Shape"></path>
                        <path d="M12.4142857,16.6682353 L9.58571429,16.6682353 C9.16666667,16.6682353 8.82619048,17.0047059 8.82619048,17.4188235 C8.82619048,17.8329412 9.16666667,18.1694118 9.58571429,18.1694118 L12.3880952,18.1694118 C12.8071429,18.1694118 13.147619,17.8329412 13.147619,17.4188235 C13.147619,17.0047059 12.8333333,16.6682353 12.4142857,16.6682353 Z" id="Shape"></path>
                        <path d="M12.4142857,13.1741176 L9.58571429,13.1741176 C9.16666667,13.1741176 8.82619048,13.5105882 8.82619048,13.9247059 C8.82619048,14.3388235 9.16666667,14.6752941 9.58571429,14.6752941 L12.3880952,14.6752941 C12.8071429,14.6752941 13.147619,14.3388235 13.147619,13.9247059 C13.147619,13.5105882 12.8333333,13.1741176 12.4142857,13.1741176 Z" id="Shape"></path>
                        <path d="M17.7833333,9.68 L14.9809524,9.68 C14.5619048,9.68 14.2214286,10.0164706 14.2214286,10.4305882 C14.2214286,10.8447059 14.5619048,11.1811765 14.9809524,11.1811765 L17.7833333,11.1811765 C18.202381,11.1811765 18.5428571,10.8447059 18.5428571,10.4305882 C18.5428571,10.0164706 18.202381,9.68 17.7833333,9.68 Z" id="Shape"></path>
                        <path d="M17.7833333,16.6682353 L14.9809524,16.6682353 C14.5619048,16.6682353 14.2214286,17.0047059 14.2214286,17.4188235 C14.2214286,17.8329412 14.5619048,18.1694118 14.9809524,18.1694118 L17.7833333,18.1694118 C18.202381,18.1694118 18.5428571,17.8329412 18.5428571,17.4188235 C18.5428571,17.0047059 18.202381,16.6682353 17.7833333,16.6682353 Z" id="Shape"></path>
                        <path d="M17.7833333,13.1741176 L14.9809524,13.1741176 C14.5619048,13.1741176 14.2214286,13.5105882 14.2214286,13.9247059 C14.2214286,14.3388235 14.5619048,14.6752941 14.9809524,14.6752941 L17.7833333,14.6752941 C18.202381,14.6752941 18.5428571,14.3388235 18.5428571,13.9247059 C18.5428571,13.5105882 18.202381,13.1741176 17.7833333,13.1741176 Z" id="Shape"></path>
                    </g>
                </g>
            </g>
        </g>
    </g>
</svg>