<?xml version="1.0" encoding="UTF-8"?>
<svg width="27px" height="14px" viewBox="0 0 27 14" version="1.1" xmlns="http://www.w3.org/2000/svg" xmlns:xlink="http://www.w3.org/1999/xlink">
    <!-- Generator: sketchtool 49.1 (51147) - http://www.bohemiancoding.com/sketch -->
    <title>EBFA3C8B-5D49-4546-8DB7-02ABFFC3579A@1x</title>
    <desc>Created with sketchtool.</desc>
    <defs></defs>
    <g id="Page-1" stroke="none" stroke-width="1" fill="none" fill-rule="evenodd">
        <g id="Artboard" transform="translate(-40.000000, -253.000000)" fill="#8EA0BB" fill-rule="nonzero">
            <g id="Tools-Menu" transform="translate(40.000000, 215.000000)">
                <g id="icon_eye" transform="translate(0.000000, 38.000000)">
                    <path d="M26.7749093,6.71921348 C26.5860181,6.44629213 22.0515423,0.0369662921 13.4904738,0.0369662921 C4.92940524,0.0369662921 0.394929435,6.44629213 0.206038306,6.71921348 L0,7.0170412 L0.206038306,7.31486891 C0.394929435,7.58779026 4.92940524,13.9971161 13.4904738,13.9971161 C22.0515423,13.9971161 26.5860181,7.58779026 26.7749093,7.31486891 L26.9809476,7.0170412 L26.7749093,6.71921348 Z M1.36115927,7.01651685 C2.08455242,6.11102622 4.52516734,3.38102622 8.49454839,1.97352809 C7.11117944,3.24548315 6.24402218,5.03381273 6.24402218,7.0170412 C6.24402218,8.9974382 7.10862097,10.7837228 8.48850605,12.0552584 C4.52946774,10.6458202 2.08575,7.92017228 1.36115927,7.01651685 Z M13.4904738,12.9232584 C10.1094859,12.9232584 7.35886089,10.2737453 7.35886089,7.0170412 C7.35886089,3.76033708 10.1094859,1.11082397 13.4904738,1.11082397 C16.8714617,1.11082397 19.6220867,3.76033708 19.6220867,7.0170412 C19.6220867,10.2737453 16.8714617,12.9232584 13.4904738,12.9232584 Z M18.4863992,12.0605543 C19.8697681,10.7885993 20.7369254,9.00026966 20.7369254,7.0170412 C20.7369254,5.03664419 19.8723266,3.25035955 18.4924415,1.97882397 C22.4515343,3.38826217 24.8951976,6.11391011 25.6197883,7.01756554 C24.8963952,7.92305618 22.4557802,10.6530562 18.4863992,12.0605543 Z" id="Shape"></path>
                    <path d="M13.4904738,4.332397 C11.9537601,4.332397 10.703377,5.53681648 10.703377,7.0170412 C10.703377,8.49726592 11.9537601,9.70168539 13.4904738,9.70168539 C15.0271875,9.70168539 16.2775706,8.49726592 16.2775706,7.0170412 C16.2775706,5.53681648 15.0271875,4.332397 13.4904738,4.332397 Z M13.4904738,8.62782772 C12.5683367,8.62782772 11.8182157,7.9052809 11.8182157,7.0170412 C11.8182157,6.1288015 12.5683367,5.40625468 13.4904738,5.40625468 C14.4126109,5.40625468 15.1627319,6.1288015 15.1627319,7.0170412 C15.1627319,7.9052809 14.4126109,8.62782772 13.4904738,8.62782772 Z" id="Shape"></path>
                </g>
            </g>
        </g>
    </g>
</svg>