<?xml version="1.0" encoding="UTF-8"?>
<svg width="22px" height="17px" viewBox="0 0 22 17" version="1.1" xmlns="http://www.w3.org/2000/svg" xmlns:xlink="http://www.w3.org/1999/xlink">
    <!-- Generator: sketchtool 49.1 (51147) - http://www.bohemiancoding.com/sketch -->
    <title>2F13C15E-3C55-4DAD-B2D8-DBA1D2CDAD0F@1x</title>
    <desc>Created with sketchtool.</desc>
    <defs></defs>
    <g id="Page-1" stroke="none" stroke-width="1" fill="none" fill-rule="evenodd">
        <g id="Artboard" transform="translate(-42.000000, -215.000000)" fill="#8EA0BB" fill-rule="nonzero">
            <g id="Tools-Menu" transform="translate(40.000000, 215.000000)">
                <g id="icon_file" transform="translate(2.000000, 0.000000)">
                    <g id="Group" transform="translate(0.000000, 0.155810)">
                        <path d="M2.25,0.0884754 C1.0241415,0.0884754 0,1.08984651 0,2.28704683 L0,14.989904 C0,15.4663588 0.163831325,15.90567 0.484375,16.2189665 C0.804918675,16.5322873 1.26213125,16.699904 1.75,16.699904 L20.25,16.699904 C20.7378597,16.699904 21.19508,16.5322873 21.515625,16.2189665 C21.83617,15.90567 22,15.4663588 22,14.989904 L22,4.66883254 C22,3.49310739 21.0157265,2.53133254 19.8125,2.53133254 L11.4609375,2.53133254 L11.21875,1.87481469 C10.8036865,0.7391988 9.6460345,0.0884754 8.5,0.0884754 L2.25,0.0884754 Z M2.25,1.06561826 L8.5,1.06561826 C9.2466155,1.06561826 10.0298645,1.5152823 10.28125,2.20307361 L11.53125,5.62307361 C11.5984882,5.81219351 11.7951147,5.94988833 12,5.95133254 L20.25,5.95133254 C20.5243153,5.95133254 20.6907762,6.02321117 20.8046875,6.13454683 C20.9185988,6.24588249 21,6.4163304 21,6.68418969 L21,14.989904 C21,15.2577633 20.9185988,15.4205675 20.8046875,15.5319129 C20.6907762,15.6432339 20.5243153,15.7227611 20.25,15.7227611 L1.75,15.7227611 C1.47566875,15.7227611 1.30921875,15.6432339 1.1953125,15.5319129 C1.08140625,15.4205675 1,15.2577633 1,14.989904 L1,2.28704683 C1,1.65772286 1.6053585,1.06561826 2.25,1.06561826 Z M11.8125,3.5084754 L19.8125,3.5084754 C20.4790235,3.5084754 21,4.01754484 21,4.66883254 L21,5.11923433 C20.7700063,5.02581776 20.5151025,4.97418969 20.25,4.97418969 L12.3515625,4.97418969 L11.8125,3.5084754 Z" id="Shape"></path>
                    </g>
                </g>
            </g>
        </g>
    </g>
</svg>