<?xml version="1.0" encoding="UTF-8"?>
<svg width="25px" height="23px" viewBox="0 0 25 23" version="1.1" xmlns="http://www.w3.org/2000/svg" xmlns:xlink="http://www.w3.org/1999/xlink">
    <!-- Generator: sketchtool 49.1 (51147) - http://www.bohemiancoding.com/sketch -->
    <title>8AA7E505-6551-4C40-9D50-D65B1E6BF111@1x</title>
    <desc>Created with sketchtool.</desc>
    <defs></defs>
    <g id="Page-1" stroke="none" stroke-width="1" fill="none" fill-rule="evenodd">
        <g id="Artboard" transform="translate(-40.000000, -330.000000)" fill="#8EA0BB" fill-rule="nonzero">
            <g id="Tools-Menu" transform="translate(40.000000, 215.000000)">
                <g id="icon_paint-brush" transform="translate(0.000000, 115.000000)">
                    <path d="M24.4608663,0.531118421 C24.150304,0.221375 23.7166413,0.0652927632 23.1705927,0.0652927632 C20.956383,0.0652927632 16.7608663,2.76151316 12.7309271,6.7749375 C11.5173252,7.98326974 10.4146657,9.22511842 9.43449848,10.4708257 L9.42720365,10.4635625 L9.0887538,10.907523 L8.83183891,11.2449572 L8.8362462,11.2493454 C7.618769,12.8913487 6.75972644,14.3793125 6.32408815,15.5987664 C6.19513678,15.582727 6.06968085,15.5710757 5.94612462,15.5710757 C4.03221884,15.5710757 2.47530395,17.1212303 2.47530395,19.0262961 C2.47530395,19.1176908 2.48016717,19.207648 2.48753799,19.2981349 C2.45820669,20.0430625 1.70759878,20.4976908 0.873480243,20.9343125 C0.368009119,21.1988125 -0.0690729483,21.427375 0.00911854103,21.9000099 C0.0930851064,22.4076743 0.672340426,22.5511217 1.97279635,22.7577434 C2.72044073,22.8759211 3.43396657,22.9362204 4.09422492,22.9362204 C6.5843465,22.9362204 7.64703647,22.1023191 7.86679331,21.901977 C8.8381459,21.2586579 9.4168693,20.188477 9.4168693,19.0268257 C9.4168693,18.8775526 9.40319149,18.7263125 9.37925532,18.5697763 C10.5943009,18.1316414 12.0705927,17.2817007 13.6953647,16.0870625 L13.700228,16.0919046 L14.0386778,15.8356513 C14.0445289,15.8312632 14.0493921,15.8264211 14.0553191,15.8230164 L14.4845745,15.4982171 L14.4777356,15.4909539 C15.7294073,14.5150428 16.9762158,13.4180789 18.1897416,12.2092928 C20.5319149,9.87774342 22.4858663,7.43005921 23.6911094,5.3173125 C25.01269,3.00028947 25.2793313,1.34557566 24.4608663,0.531118421 Z M7.28958967,21.117102 L6.92036474,21.3548947 L6.92963526,21.3723717 C6.51892097,21.6052467 5.63404255,21.9646217 4.09468085,21.9646217 C3.48670213,21.9646217 2.82446809,21.9091645 2.12705167,21.7978717 C1.88237082,21.7589836 1.68411854,21.7244836 1.5224924,21.6928586 C2.31610942,21.2698553 3.4412614,20.5812928 3.46519757,19.2942007 L3.4656535,19.2689309 L3.46268997,19.2446447 C3.45683891,19.1736776 3.45197568,19.1007434 3.45197568,19.0278092 C3.45197568,17.6590066 4.57082067,16.5450954 5.94604863,16.5450954 C6.09893617,16.5450954 6.26056231,16.565523 6.44369301,16.6058487 L6.46808511,16.6122039 L8.37515198,18.5109901 C8.41907295,18.7005888 8.44012158,18.8678684 8.44012158,19.0278849 C8.44019757,19.8757829 8.01041033,20.6571776 7.28958967,21.117102 Z M8.94027356,17.6964572 L7.22028875,15.9839408 C7.60319149,14.8840263 8.40942249,13.4749737 9.53267477,11.9428257 L11.2644377,13.6670691 L12.9986322,15.3937336 C11.4611702,16.5119572 10.0449088,17.3156711 8.94027356,17.6964572 Z M22.8419453,4.83733882 C21.6786474,6.87616776 19.781383,9.25000987 17.500228,11.5217138 C16.2841945,12.7314836 15.037386,13.8338191 13.7867021,14.8028454 L11.9578267,12.9828191 L10.1264438,11.1599178 C11.0992401,9.91466447 12.206383,8.67281579 13.4208967,7.46304605 C17.6569149,3.24489145 21.5320669,1.03832895 23.1705167,1.03832895 C23.4478723,1.03832895 23.6490881,1.09908224 23.7702128,1.21869737 C24.1048632,1.55128947 24.0618541,2.69879276 22.8419453,4.83733882 Z" id="Shape"></path>
                </g>
            </g>
        </g>
    </g>
</svg>