<?xml version="1.0" encoding="UTF-8"?>
<svg width="24px" height="25px" viewBox="0 0 24 25" version="1.1" xmlns="http://www.w3.org/2000/svg" xmlns:xlink="http://www.w3.org/1999/xlink">
    <!-- Generator: sketchtool 49.1 (51147) - http://www.bohemiancoding.com/sketch -->
    <title>A11B63CF-580E-4E20-86DE-D63C7960411D@1x</title>
    <desc>Created with sketchtool.</desc>
    <defs></defs>
    <g id="Page-1" stroke="none" stroke-width="1" fill="none" fill-rule="evenodd">
        <g id="Artboard" transform="translate(-1012.000000, -863.000000)">
            <g id="Zoom-Menu" transform="translate(746.000000, 850.000000)">
                <g id="Zoom-In" transform="translate(253.000000, 0.000000)">
                    <g id="icon_zoom-in" transform="translate(13.000000, 13.000000)">
                        <g id="magnifying-glass-browser-copy-3" fill="#8EA0BB" fill-rule="nonzero">
                            <path d="M16.6689979,16.2887397 C18.2493646,14.5618285 19.2353092,12.2494835 19.2353092,9.70299587 C19.2353092,4.36120868 14.9291258,0 9.62251599,0 C4.31590618,0 0.0097228145,4.36120868 0.0097228145,9.70299587 C0.0097228145,15.0447831 4.31590618,19.4059917 9.62251599,19.4059917 C11.7828742,19.4059917 13.769194,18.6888946 15.3785757,17.4741736 L22.526533,24.6892045 C22.7005203,24.8648244 22.9180043,24.9526343 23.1354883,24.9526343 C23.3529723,24.9526343 23.5849382,24.8648244 23.7444435,24.6892045 C24.077936,24.3525826 24.077936,23.7964876 23.7444435,23.4452479 L16.6689979,16.2887397 Z M1.74959488,9.70299587 C1.74959488,5.32711777 5.27283582,1.75619835 9.62251599,1.75619835 C13.9577143,1.75619835 17.4954371,5.3125 17.4954371,9.70299587 C17.4954371,14.0934917 13.9721962,17.6497934 9.62251599,17.6497934 C5.27283582,17.6497934 1.74959488,14.078874 1.74959488,9.70299587 Z" id="Shape"></path>
                        </g>
                        <g id="plus" transform="translate(5.000000, 5.000000)">
                            <rect id="Rectangle-8" fill="#8EA0BB" x="4" y="0" width="1" height="9"></rect>
                            <rect id="Rectangle-20-Copy-2" stroke="#8EA0BB" x="0.5" y="4.5" width="8" height="1"></rect>
                        </g>
                    </g>
                </g>
            </g>
        </g>
    </g>
</svg>